<svg width="168" height="33" viewBox="0 0 168 33" fill="none" xmlns="http://www.w3.org/2000/svg">
<path d="M155.52 26.6342L158.17 11.6146H161.961V13.9231H162.16C162.464 13.4101 162.816 12.9541 163.215 12.5551C163.614 12.1371 164.06 11.8141 164.554 11.5861C165.067 11.3581 165.628 11.2441 166.236 11.2441C166.597 11.2441 166.91 11.2821 167.176 11.3581C167.461 11.4151 167.67 11.4816 167.803 11.5576L167.091 15.6331H165.609C165.02 15.6331 164.488 15.7186 164.013 15.8896C163.538 16.0606 163.129 16.3076 162.787 16.6306C162.445 16.9536 162.16 17.3621 161.932 17.8561C161.704 18.3311 161.543 18.8821 161.448 19.5092L160.194 26.6342H155.52Z" fill="#141D26"/>
<path d="M150.274 9.591L150.901 6H155.575L154.948 9.591H150.274ZM147.31 26.634L149.96 11.6145H154.634L151.984 26.634H147.31Z" fill="#141D26"/>
<path d="M134.886 26.976C133.803 26.976 132.862 26.767 132.064 26.349C131.266 25.912 130.649 25.2755 130.212 24.4395C129.794 23.6035 129.585 22.5775 129.585 21.3615C129.585 20.9815 129.604 20.592 129.642 20.193C129.68 19.775 129.737 19.338 129.813 18.882C130.117 17.153 130.592 15.728 131.238 14.607C131.903 13.486 132.72 12.65 133.689 12.099C134.658 11.548 135.75 11.2725 136.966 11.2725C137.612 11.2725 138.201 11.3485 138.733 11.5005C139.284 11.6525 139.769 11.89 140.187 12.213C140.605 12.517 140.956 12.9255 141.241 13.4385H141.441L142.552 11.6145H146.314L145.63 15.291C145.516 15.975 145.393 16.6685 145.26 17.3715C145.127 18.0745 145.003 18.7395 144.889 19.3665C144.775 19.9935 144.671 20.5635 144.576 21.0765C144.481 21.5895 144.405 22.0075 144.348 22.3305C144.31 22.6535 144.291 22.8625 144.291 22.9575C144.291 23.2235 144.357 23.423 144.49 23.556C144.642 23.67 144.832 23.727 145.06 23.727H145.944L145.459 26.463C145.136 26.596 144.756 26.71 144.319 26.805C143.882 26.919 143.426 26.976 142.951 26.976C142.381 26.976 141.878 26.8905 141.441 26.7195C141.023 26.5675 140.681 26.3205 140.415 25.9785C140.282 25.8265 140.168 25.6365 140.073 25.4085C139.997 25.1805 139.94 24.943 139.902 24.696H139.702C139.094 25.437 138.372 26.007 137.536 26.406C136.7 26.786 135.817 26.976 134.886 26.976ZM136.71 23.328C137.185 23.328 137.622 23.233 138.021 23.043C138.42 22.853 138.771 22.587 139.075 22.245C139.379 21.903 139.636 21.4945 139.845 21.0195C140.054 20.5445 140.206 20.022 140.301 19.452C140.377 19.072 140.424 18.768 140.443 18.54C140.481 18.293 140.5 18.0935 140.5 17.9415C140.519 17.7705 140.529 17.628 140.529 17.514C140.529 16.982 140.443 16.526 140.272 16.146C140.12 15.747 139.873 15.443 139.531 15.234C139.189 15.025 138.743 14.9205 138.192 14.9205C137.489 14.9205 136.9 15.063 136.425 15.348C135.95 15.614 135.57 16.032 135.285 16.602C135 17.153 134.781 17.8275 134.629 18.6255C134.534 19.1195 134.458 19.509 134.401 19.794C134.363 20.079 134.335 20.3165 134.316 20.5065C134.316 20.6775 134.316 20.82 134.316 20.934C134.316 21.713 134.496 22.3115 134.857 22.7295C135.237 23.1285 135.855 23.328 136.71 23.328Z" fill="#141D26"/>
<path d="M118.121 31.8208C117.095 31.8208 116.174 31.6878 115.357 31.4218C114.559 31.1558 113.932 30.7663 113.476 30.2533C113.02 29.7593 112.792 29.1418 112.792 28.4008C112.792 28.2678 112.792 28.1158 112.792 27.9448C112.811 27.7928 112.849 27.5933 112.906 27.3463H115.784C115.765 27.4413 115.756 27.5173 115.756 27.5743C115.756 27.6313 115.756 27.6883 115.756 27.7453C115.756 28.1443 115.87 28.4578 116.098 28.6858C116.326 28.9328 116.639 29.1038 117.038 29.1988C117.456 29.3128 117.903 29.3698 118.378 29.3698C119.271 29.3698 120.031 29.2083 120.658 28.8853C121.304 28.5813 121.817 28.1158 122.197 27.4888C122.596 26.8618 122.881 26.0828 123.052 25.1518C123.09 24.9618 123.119 24.7813 123.138 24.6103C123.157 24.4203 123.176 24.2683 123.195 24.1543H123.024C122.644 24.6483 122.207 25.0568 121.713 25.3798C121.238 25.7028 120.715 25.9403 120.145 26.0923C119.594 26.2443 119.015 26.3203 118.407 26.3203C117.399 26.3203 116.525 26.1303 115.784 25.7503C115.062 25.3513 114.502 24.7528 114.103 23.9548C113.704 23.1568 113.504 22.1403 113.504 20.9053C113.504 20.5823 113.514 20.2308 113.533 19.8508C113.571 19.4708 113.628 19.0623 113.704 18.6253C114.141 16.0793 114.967 14.2268 116.183 13.0678C117.4 11.8898 118.901 11.3008 120.687 11.3008C121.732 11.3008 122.634 11.5003 123.394 11.8993C124.173 12.2983 124.753 12.8968 125.133 13.6948H125.332L125.959 11.6428H128.353L126.045 24.9238C125.741 26.5768 125.266 27.9068 124.62 28.9138C123.974 29.9208 123.119 30.6523 122.055 31.1083C120.991 31.5833 119.68 31.8208 118.121 31.8208ZM119.604 23.7553C120.136 23.7553 120.639 23.6603 121.114 23.4703C121.608 23.2803 122.055 22.9953 122.454 22.6153C122.853 22.2353 123.195 21.7508 123.48 21.1618C123.765 20.5538 123.974 19.8318 124.107 18.9958C124.164 18.6538 124.211 18.3688 124.249 18.1408C124.287 17.8938 124.306 17.6753 124.306 17.4853C124.325 17.2953 124.335 17.1148 124.335 16.9438C124.335 16.2598 124.221 15.6898 123.993 15.2338C123.784 14.7778 123.461 14.4358 123.024 14.2078C122.587 13.9798 122.017 13.8658 121.314 13.8658C120.554 13.8658 119.86 14.0273 119.233 14.3503C118.625 14.6543 118.112 15.1483 117.694 15.8323C117.295 16.5163 117 17.4283 116.81 18.5683C116.753 18.9483 116.706 19.2808 116.668 19.5658C116.63 19.8318 116.601 20.0598 116.582 20.2498C116.563 20.4398 116.554 20.6203 116.554 20.7913C116.554 21.4563 116.659 22.0073 116.868 22.4443C117.096 22.8813 117.437 23.2138 117.894 23.4418C118.35 23.6508 118.92 23.7553 119.604 23.7553Z" fill="#141D26"/>
<path d="M101.784 26.9758C100.796 26.9758 99.9312 26.7763 99.1902 26.3773C98.4682 25.9593 97.9077 25.3513 97.5087 24.5533C97.1097 23.7363 96.9102 22.7198 96.9102 21.5038C96.9102 21.1238 96.9292 20.7248 96.9672 20.3068C97.0242 19.8888 97.0907 19.4423 97.1667 18.9673C97.4707 17.1813 97.9457 15.7278 98.5917 14.6068C99.2377 13.4668 100.026 12.6308 100.957 12.0988C101.907 11.5668 102.971 11.3008 104.149 11.3008C104.814 11.3008 105.413 11.3863 105.945 11.5573C106.496 11.7093 106.98 11.9468 107.398 12.2698C107.816 12.5928 108.149 13.0108 108.396 13.5238H108.595L109.422 11.6428H111.873L111.217 15.2623C111.084 15.9653 110.942 16.6968 110.79 17.4568C110.657 18.1978 110.524 18.9293 110.391 19.6513C110.277 20.3543 110.163 21.0003 110.049 21.5893C109.954 22.1593 109.878 22.6438 109.821 23.0428C109.764 23.4228 109.735 23.6603 109.735 23.7553C109.735 24.0023 109.811 24.1923 109.963 24.3253C110.115 24.4393 110.315 24.4963 110.562 24.4963H111.588L111.246 26.5198C111.056 26.6148 110.79 26.7098 110.448 26.8048C110.125 26.9188 109.735 26.9758 109.279 26.9758C108.766 26.9758 108.339 26.8618 107.997 26.6338C107.655 26.4248 107.408 26.1113 107.256 25.6933C107.199 25.5223 107.142 25.3418 107.085 25.1518C107.047 24.9428 107.037 24.7243 107.056 24.4963H106.857C106.23 25.3323 105.479 25.9593 104.605 26.3773C103.75 26.7763 102.81 26.9758 101.784 26.9758ZM103.009 24.4108C103.503 24.4108 103.988 24.3158 104.463 24.1258C104.938 23.9168 105.375 23.6128 105.774 23.2138C106.173 22.7958 106.524 22.2733 106.828 21.6463C107.132 21.0003 107.37 20.2308 107.541 19.3378C107.598 18.9768 107.636 18.6633 107.655 18.3973C107.693 18.1313 107.721 17.8938 107.74 17.6848C107.759 17.4758 107.769 17.2858 107.769 17.1148C107.769 16.4118 107.664 15.8228 107.455 15.3478C107.246 14.8538 106.923 14.4833 106.486 14.2363C106.049 13.9893 105.489 13.8658 104.805 13.8658C103.988 13.8658 103.275 14.0368 102.667 14.3788C102.078 14.7208 101.584 15.2623 101.185 16.0033C100.805 16.7443 100.501 17.7133 100.273 18.9103C100.197 19.3093 100.14 19.6513 100.102 19.9363C100.064 20.2213 100.036 20.4778 100.017 20.7058C99.9977 20.9338 99.9882 21.1428 99.9882 21.3328C99.9882 22.3778 100.235 23.1568 100.729 23.6698C101.223 24.1638 101.983 24.4108 103.009 24.4108Z" fill="#141D26"/>
<path d="M83.013 31.8206C82.386 31.8206 81.8825 31.7731 81.5025 31.6781C81.1225 31.6021 80.885 31.5546 80.79 31.5356L81.132 29.3696H82.614C83.07 29.3696 83.507 29.2841 83.925 29.1131C84.362 28.9611 84.78 28.6761 85.179 28.2581C85.578 27.8591 85.9485 27.2986 86.2905 26.5766L83.1555 11.6426H86.1195L87.6015 18.8531C87.6965 19.2711 87.7915 19.7651 87.8865 20.3351C87.9815 20.8861 88.067 21.4371 88.143 21.9881C88.238 22.5391 88.3046 23.0236 88.3425 23.4416H88.4851C88.6181 23.1376 88.7605 22.7956 88.9125 22.4156C89.0835 22.0356 89.2545 21.6461 89.4255 21.2471C89.6155 20.8481 89.7961 20.4681 89.9671 20.1071C90.1381 19.7271 90.2901 19.4041 90.4231 19.1381L94.1566 11.6426H97.2631L89.7676 26.0636C89.3496 26.8806 88.9125 27.6311 88.4565 28.3151C88.0005 29.0181 87.5065 29.6261 86.9745 30.1391C86.4425 30.6711 85.8535 31.0796 85.2075 31.3646C84.5615 31.6686 83.83 31.8206 83.013 31.8206Z" fill="#141D26"/>
<path d="M72.1255 26.9758C70.7575 26.9758 69.608 26.7763 68.677 26.3773C67.746 25.9593 67.043 25.3323 66.568 24.4963C66.093 23.6603 65.8555 22.5963 65.8555 21.3043C65.8555 20.9433 65.8745 20.5633 65.9125 20.1643C65.9505 19.7653 66.0075 19.3473 66.0835 18.9103C66.3875 17.1623 66.9005 15.7278 67.6225 14.6068C68.3445 13.4858 69.266 12.6593 70.387 12.1273C71.508 11.5763 72.8285 11.3008 74.3485 11.3008C75.7355 11.3008 76.8945 11.5098 77.8255 11.9278C78.7565 12.3268 79.45 12.9443 79.906 13.7803C80.381 14.6163 80.6185 15.6898 80.6185 17.0008C80.6185 17.3618 80.5995 17.7418 80.5615 18.1408C80.5425 18.5208 80.4855 18.9293 80.3905 19.3663C80.0865 21.1143 79.583 22.5488 78.88 23.6698C78.177 24.7908 77.265 25.6268 76.144 26.1778C75.042 26.7098 73.7025 26.9758 72.1255 26.9758ZM72.2965 24.5248C73.2275 24.5248 74.0255 24.3443 74.6905 23.9833C75.3555 23.6033 75.897 23.0333 76.315 22.2733C76.752 21.5133 77.0655 20.5538 77.2555 19.3948C77.3505 19.0148 77.4075 18.6918 77.4265 18.4258C77.4645 18.1408 77.4835 17.8938 77.4835 17.6848C77.5025 17.4758 77.512 17.2858 77.512 17.1148C77.512 16.3548 77.3885 15.7278 77.1415 15.2338C76.9135 14.7398 76.5525 14.3693 76.0585 14.1223C75.5645 13.8753 74.9375 13.7518 74.1775 13.7518C73.2465 13.7518 72.4485 13.9418 71.7835 14.3218C71.1375 14.7018 70.596 15.2718 70.159 16.0318C69.741 16.7728 69.418 17.7228 69.19 18.8818C69.133 19.2618 69.0855 19.5943 69.0475 19.8793C69.0095 20.1643 68.981 20.4113 68.962 20.6203C68.943 20.8103 68.9335 21.0003 68.9335 21.1903C68.9335 21.9503 69.0475 22.5773 69.2755 23.0713C69.5225 23.5463 69.9025 23.9073 70.4155 24.1543C70.9285 24.4013 71.5555 24.5248 72.2965 24.5248Z" fill="#141D26"/>
<path d="M53.7335 26.634L50 7.08301H53.249L55.4435 19.0245C55.5385 19.5565 55.624 20.0885 55.7 20.6205C55.795 21.1525 55.8805 21.637 55.9565 22.074C56.0325 22.511 56.08 22.872 56.099 23.157H56.2985C56.4885 22.739 56.7165 22.264 56.9825 21.732C57.2675 21.181 57.543 20.649 57.809 20.136C58.075 19.604 58.303 19.1765 58.493 18.8535L64.6775 7.08301H68.069L57.467 26.634H53.7335Z" fill="#141D26"/>
<path d="M34.5359 5.34468C34.5359 5.34468 13.9771 40.9003 7.62939e-06 12.6153C11.204 38.1897 35.5344 18.2595 44.002 0.0829866C38.2335 -0.778023 34.5359 5.34468 34.5359 5.34468Z" fill="#141D26"/>
<path d="M25.0345 32.2712L21.0849 25.7023C25.7542 23.8775 30.3728 20.6503 34.3877 16.7148L25.0345 32.2712Z" fill="#141D26"/>
<path d="M6.06685 0.0773289C6.06685 0.0773289 12.7585 -1.00531 16.6659 5.00915C18.6124 8.00573 21.0878 12.8086 22.873 16.4478C21.5536 17.8019 20.0281 19.2195 18.3566 20.5167L6.06685 0.0773289Z" fill="#141D26"/>
</svg>
